<svg width="1402" height="635" viewBox="0 0 1402 635" fill="none" xmlns="http://www.w3.org/2000/svg">
<path d="M0 425.927V519.85H36.5714C46.4805 519.85 55.245 517.8 62.6217 513.755C70.0153 509.702 75.8654 504.098 80.0106 497.098C84.157 490.097 86.2595 481.953 86.2595 472.89C86.2595 463.826 84.157 455.681 80.0106 448.678C75.863 441.679 70.0129 436.076 62.6217 432.022H62.6205C55.2414 427.977 46.4781 425.927 36.5714 425.927H0ZM7.42946 432.968H36.3103C44.9359 432.968 52.539 434.7 58.91 438.114C65.2511 441.513 70.2068 446.256 73.6408 452.214C77.0831 458.188 78.83 465.145 78.83 472.89C78.83 480.631 77.0831 487.588 73.642 493.563C70.2056 499.523 65.2499 504.266 58.91 507.663C52.5414 511.078 44.9383 512.808 36.3103 512.808H7.42946V432.968Z" fill="url(#paint0_linear_79_7)"/>
<path d="M113.762 425.927V519.85H121.193V489.332H146.827C150.038 489.332 153.132 489.103 156.036 488.653L178.389 519.85H187.304L163.529 486.852C164.711 486.458 165.825 486.026 166.859 485.564C172.52 483.028 176.913 479.342 179.918 474.605C182.918 469.88 184.438 464.147 184.438 457.566C184.438 450.984 182.917 445.269 179.915 440.581C176.912 435.896 172.519 432.232 166.859 429.694C161.272 427.194 154.533 425.927 146.827 425.927H113.762ZM121.193 432.968H147.088C156.891 432.968 164.451 435.144 169.558 439.433C174.659 443.718 177.138 449.649 177.138 457.566C177.138 465.481 174.657 471.436 169.553 475.765C164.448 480.096 156.89 482.291 147.088 482.291H121.193V432.968Z" fill="url(#paint1_linear_79_7)"/>
<path d="M240.407 425.927L196.934 519.85H205.065L243.513 436.155L281.961 519.85H290.092L246.621 425.927H240.407Z" fill="url(#paint2_linear_79_7)"/>
<path d="M308.121 510.302C306.947 511.418 306.353 512.813 306.353 514.446C306.353 516.083 306.947 517.478 308.118 518.589C309.266 519.684 310.622 520.24 312.147 520.24C313.768 520.24 315.155 519.676 316.264 518.564C317.377 517.453 317.94 516.067 317.94 514.446C317.94 512.829 317.377 511.443 316.262 510.327C315.149 509.216 313.764 508.652 312.147 508.652C310.628 508.652 309.274 509.208 308.121 510.302Z" fill="url(#paint3_linear_79_7)"/>
<path d="M385.439 425.927V519.85H446.117V512.808H392.87V425.927H385.439Z" fill="url(#paint4_linear_79_7)"/>
<path d="M494.422 425.927L450.949 519.85H459.082L497.529 436.155L535.978 519.85H544.108L500.635 425.927H494.422Z" fill="url(#paint5_linear_79_7)"/>
<path d="M632.575 425.927V505.921L570.275 425.927H564.396V519.85H571.827V439.856L634.127 519.85H640.006V425.927H632.575Z" fill="url(#paint6_linear_79_7)"/>
<path d="M744.911 425.927V505.923L682.611 425.927H676.73V519.85H684.162V439.856L746.461 519.85H752.341V425.927H744.911Z" fill="url(#paint7_linear_79_7)"/>
<path d="M815.971 425.927L772.498 519.85H780.629L819.077 436.154L857.526 519.85H865.657L822.184 425.927H815.971Z" fill="url(#paint8_linear_79_7)"/>
<path d="M925.294 425.927V519.85H932.727V478.422H982.076V471.512H932.727V432.968H987.921V425.927H925.294Z" fill="url(#paint9_linear_79_7)"/>
<path d="M1013.6 425.927V519.85H1074.28V512.808H1021.04V425.927H1013.6Z" fill="url(#paint10_linear_79_7)"/>
<path d="M1122.59 425.927L1079.11 519.85H1087.25L1125.69 436.154L1164.14 519.85H1172.27L1128.8 425.927H1122.59Z" fill="url(#paint11_linear_79_7)"/>
<path d="M1254.13 425.927L1216.99 508.907L1179.85 425.927H1171.61L1213.74 519.85H1219.98L1262.11 425.927H1254.13Z" fill="url(#paint12_linear_79_7)"/>
<path d="M1280.48 519.85H1287.91V425.927H1280.48V519.85Z" fill="url(#paint13_linear_79_7)"/>
<path d="M1351.54 425.927L1308.07 519.85H1316.2L1354.65 436.154L1393.1 519.85H1401.23L1357.75 425.927H1351.54Z" fill="url(#paint14_linear_79_7)"/>
<path d="M245.828 603.358C243.789 604.167 242.019 605.3 240.519 606.755C239.019 608.209 237.85 609.911 237.01 611.86C236.171 613.81 235.75 615.941 235.75 618.249C235.75 620.56 236.171 622.689 237.01 624.638C237.85 626.588 239.019 628.29 240.519 629.745C242.019 631.2 243.796 632.332 245.851 633.141C247.904 633.951 250.133 634.357 252.532 634.357C254.932 634.357 257.143 633.959 259.168 633.164C261.192 632.369 262.962 631.245 264.478 629.79C265.991 628.335 267.161 626.634 267.986 624.683C268.81 622.733 269.223 620.589 269.223 618.249C269.223 615.911 268.81 613.766 267.986 611.817C267.161 609.866 265.991 608.164 264.478 606.709C262.962 605.254 261.192 604.13 259.168 603.335C257.143 602.54 254.932 602.142 252.532 602.142C250.103 602.142 247.868 602.548 245.828 603.358ZM247.651 629.452C246.166 628.853 244.868 628.005 243.759 626.91C242.648 625.815 241.786 624.533 241.172 623.063C240.556 621.594 240.25 619.989 240.25 618.249C240.25 616.51 240.556 614.906 241.172 613.436C241.786 611.967 242.648 610.684 243.759 609.589C244.868 608.494 246.166 607.647 247.651 607.047C249.135 606.447 250.761 606.148 252.532 606.148C254.272 606.148 255.883 606.447 257.368 607.047C258.854 607.647 260.142 608.494 261.238 609.589C262.332 610.684 263.187 611.967 263.801 613.436C264.417 614.906 264.725 616.51 264.725 618.249C264.725 619.989 264.417 621.594 263.801 623.063C263.187 624.533 262.332 625.815 261.238 626.91C260.142 628.005 258.854 628.853 257.368 629.452C255.883 630.052 254.272 630.352 252.532 630.352C250.761 630.352 249.135 630.052 247.651 629.452Z" fill="url(#paint15_linear_79_7)"/>
<path d="M294.102 602.503V633.996H307.376C310.734 633.996 313.696 633.336 316.261 632.017C318.826 630.696 320.819 628.852 322.245 626.482C323.669 624.113 324.381 621.369 324.381 618.249C324.381 615.13 323.669 612.387 322.245 610.016C320.819 607.646 318.826 605.803 316.261 604.482C313.696 603.164 310.734 602.503 307.376 602.503H294.102ZM298.603 606.417H307.105C309.715 606.417 311.971 606.913 313.876 607.902C315.781 608.892 317.258 610.271 318.307 612.041C319.357 613.81 319.883 615.879 319.883 618.249C319.883 620.588 319.357 622.651 318.307 624.435C317.258 626.221 315.781 627.607 313.876 628.597C311.971 629.586 309.715 630.082 307.105 630.082H298.603V606.417Z" fill="url(#paint16_linear_79_7)"/>
<path d="M356.774 603.358C354.735 604.167 352.966 605.3 351.465 606.755C349.965 608.209 348.796 609.911 347.957 611.86C347.117 613.81 346.698 615.941 346.698 618.249C346.698 620.56 347.117 622.689 347.957 624.638C348.796 626.588 349.965 628.29 351.465 629.745C352.966 631.2 354.742 632.332 356.797 633.141C358.852 633.951 361.079 634.357 363.478 634.357C365.878 634.357 368.09 633.959 370.115 633.164C372.14 632.369 373.908 631.245 375.423 629.79C376.937 628.335 378.107 626.634 378.932 624.683C379.757 622.733 380.169 620.589 380.169 618.249C380.169 615.911 379.757 613.766 378.932 611.817C378.107 609.866 376.937 608.164 375.423 606.709C373.908 605.254 372.14 604.13 370.115 603.335C368.09 602.54 365.878 602.142 363.478 602.142C361.049 602.142 358.813 602.548 356.774 603.358ZM358.597 629.452C357.112 628.853 355.815 628.005 354.705 626.91C353.595 625.815 352.733 624.533 352.119 623.063C351.504 621.594 351.196 619.989 351.196 618.249C351.196 616.51 351.504 614.906 352.119 613.436C352.733 611.967 353.595 610.684 354.705 609.589C355.815 608.494 357.112 607.647 358.597 607.047C360.081 606.447 361.708 606.148 363.478 606.148C365.218 606.148 366.829 606.447 368.315 607.047C369.8 607.647 371.088 608.494 372.184 609.589C373.278 610.684 374.133 611.967 374.749 613.436C375.363 614.906 375.671 616.51 375.671 618.249C375.671 619.989 375.363 621.594 374.749 623.063C374.133 624.533 373.278 625.815 372.184 626.91C371.088 628.005 369.8 628.853 368.315 629.452C366.829 630.052 365.218 630.352 363.478 630.352C361.708 630.352 360.081 630.052 358.597 629.452Z" fill="url(#paint17_linear_79_7)"/>
<path d="M427.635 602.503V625.97L408.739 602.503H405.05V633.996H409.548V610.528L428.445 633.996H432.133V602.503H427.635Z" fill="url(#paint18_linear_79_7)"/>
<path d="M455.033 602.503V606.417H465.831V633.996H470.286V606.417H481.084V602.503H455.033Z" fill="url(#paint19_linear_79_7)"/>
<path d="M511.047 603.358C509.007 604.167 507.238 605.3 505.738 606.755C504.238 608.209 503.069 609.911 502.229 611.86C501.388 613.81 500.969 615.941 500.969 618.249C500.969 620.56 501.388 622.689 502.229 624.638C503.069 626.588 504.238 628.29 505.738 629.745C507.238 631.2 509.015 632.332 511.07 633.141C513.123 633.951 515.351 634.357 517.751 634.357C520.15 634.357 522.362 633.959 524.386 633.164C526.411 632.369 528.181 631.245 529.695 629.79C531.21 628.335 532.38 626.634 533.205 624.683C534.029 622.733 534.442 620.589 534.442 618.249C534.442 615.911 534.029 613.766 533.205 611.817C532.38 609.866 531.21 608.164 529.695 606.709C528.181 605.254 526.411 604.13 524.386 603.335C522.362 602.54 520.15 602.142 517.751 602.142C515.321 602.142 513.086 602.548 511.047 603.358ZM512.869 629.452C511.385 628.853 510.087 628.005 508.977 626.91C507.867 625.815 507.005 624.533 506.391 623.063C505.775 621.594 505.469 619.989 505.469 618.249C505.469 616.51 505.775 614.906 506.391 613.436C507.005 611.967 507.867 610.684 508.977 609.589C510.087 608.494 511.385 607.647 512.869 607.047C514.354 606.447 515.98 606.148 517.751 606.148C519.491 606.148 521.102 606.447 522.587 607.047C524.073 607.647 525.361 608.494 526.455 609.589C527.551 610.684 528.405 611.967 529.02 613.436C529.634 614.906 529.943 616.51 529.943 618.249C529.943 619.989 529.634 621.594 529.02 623.063C528.405 624.533 527.551 625.815 526.455 626.91C525.361 628.005 524.073 628.853 522.587 629.452C521.102 630.052 519.491 630.352 517.751 630.352C515.98 630.352 514.354 630.052 512.869 629.452Z" fill="url(#paint20_linear_79_7)"/>
<path d="M559.321 602.503V633.996H580.872V630.082H563.821V602.503H559.321Z" fill="url(#paint21_linear_79_7)"/>
<path d="M610.971 603.358C608.931 604.167 607.162 605.3 605.663 606.755C604.162 608.209 602.993 609.911 602.153 611.86C601.314 613.81 600.894 615.941 600.894 618.249C600.894 620.56 601.314 622.689 602.153 624.638C602.993 626.588 604.162 628.29 605.663 629.745C607.162 631.2 608.94 632.332 610.993 633.141C613.049 633.951 615.275 634.357 617.674 634.357C620.075 634.357 622.287 633.959 624.311 633.164C626.336 632.369 628.104 631.245 629.62 629.79C631.134 628.335 632.305 626.634 633.13 624.683C633.955 622.733 634.366 620.589 634.366 618.249C634.366 615.911 633.955 613.766 633.13 611.817C632.305 609.866 631.134 608.164 629.62 606.709C628.104 605.254 626.336 604.13 624.311 603.335C622.287 602.54 620.075 602.142 617.674 602.142C615.246 602.142 613.011 602.548 610.971 603.358ZM612.793 629.452C611.309 628.853 610.01 628.005 608.902 626.91C607.792 625.815 606.928 624.533 606.314 623.063C605.7 621.594 605.392 619.989 605.392 618.249C605.392 616.51 605.7 614.906 606.314 613.436C606.928 611.967 607.792 610.684 608.902 609.589C610.01 608.494 611.309 607.647 612.793 607.047C614.278 606.447 615.906 606.148 617.674 606.148C619.414 606.148 621.027 606.447 622.512 607.047C623.996 607.647 625.286 608.494 626.38 609.589C627.476 610.684 628.331 611.967 628.945 613.436C629.559 614.906 629.868 616.51 629.868 618.249C629.868 619.989 629.559 621.594 628.945 623.063C628.331 624.533 627.476 625.815 626.38 626.91C625.286 628.005 623.996 628.853 622.512 629.452C621.027 630.052 619.414 630.352 617.674 630.352C615.906 630.352 614.278 630.052 612.793 629.452Z" fill="url(#paint22_linear_79_7)"/>
<path d="M666.805 603.335C664.764 604.13 662.987 605.254 661.474 606.709C659.958 608.164 658.781 609.866 657.942 611.817C657.101 613.766 656.681 615.911 656.681 618.249C656.681 620.589 657.101 622.733 657.942 624.683C658.781 626.634 659.951 628.335 661.451 629.79C662.95 631.245 664.72 632.369 666.759 633.164C668.799 633.959 671.035 634.357 673.463 634.357C675.683 634.357 677.834 634.019 679.919 633.344C682.005 632.668 683.826 631.672 685.386 630.352V618.069H681.067V628.317C680.257 628.849 679.409 629.264 678.525 629.565C676.98 630.091 675.367 630.352 673.688 630.352C671.889 630.352 670.224 630.052 668.695 629.452C667.165 628.853 665.837 628.005 664.713 626.91C663.589 625.815 662.717 624.525 662.103 623.041C661.488 621.557 661.181 619.959 661.181 618.249C661.181 616.51 661.488 614.898 662.103 613.413C662.717 611.928 663.589 610.646 664.713 609.566C665.837 608.486 667.172 607.647 668.717 607.047C670.261 606.447 671.934 606.148 673.734 606.148C675.503 606.148 677.145 606.44 678.659 607.024C680.174 607.609 681.576 608.531 682.867 609.791L685.657 607.001C684.216 605.382 682.461 604.167 680.392 603.358C678.322 602.548 676.043 602.142 673.554 602.142C671.094 602.142 668.845 602.54 666.805 603.335Z" fill="url(#paint23_linear_79_7)"/>
<path d="M711.974 633.996H716.473V602.503H711.974V633.996Z" fill="url(#paint24_linear_79_7)"/>
<path d="M753.411 602.503L739.15 633.996H743.784L747.243 626.123H763.989L767.449 633.996H772.172L757.865 602.503H753.411ZM755.616 607.069L762.407 622.523H748.824L755.616 607.069Z" fill="url(#paint25_linear_79_7)"/>
<path d="M824.946 602.503V633.996H847.801V630.082H829.444V619.914H845.237V616.09H829.444V606.417H847.171V602.503H824.946Z" fill="url(#paint26_linear_79_7)"/>
<path d="M876.212 603.379C874.427 604.205 873.107 605.3 872.254 606.665C871.398 608.03 870.971 609.522 870.971 611.14C870.971 612.82 871.315 614.194 872.006 615.257C872.696 616.322 873.603 617.17 874.727 617.799C875.853 618.43 877.096 618.947 878.462 619.352C879.826 619.758 881.183 620.11 882.534 620.409C883.883 620.708 885.12 621.062 886.245 621.466C887.37 621.871 888.285 622.404 888.99 623.063C889.694 623.724 890.046 624.594 890.046 625.674C890.046 626.603 889.777 627.435 889.238 628.17C888.698 628.905 887.857 629.482 886.717 629.901C885.576 630.322 884.093 630.532 882.263 630.532C880.253 630.532 878.319 630.188 876.459 629.498C874.599 628.808 873.07 627.938 871.871 626.888L870.206 630.397C871.466 631.567 873.19 632.519 875.38 633.254C877.569 633.989 879.864 634.357 882.263 634.357C885.023 634.357 887.31 633.944 889.124 633.12C890.939 632.294 892.28 631.201 893.151 629.834C894.021 628.469 894.456 626.993 894.456 625.403C894.456 623.754 894.11 622.404 893.42 621.354C892.731 620.305 891.824 619.464 890.7 618.834C889.574 618.205 888.329 617.695 886.964 617.304C885.599 616.915 884.243 616.562 882.893 616.247C881.544 615.932 880.306 615.58 879.181 615.19C878.056 614.801 877.141 614.275 876.437 613.615C875.732 612.957 875.38 612.071 875.38 610.961C875.38 610.032 875.642 609.191 876.167 608.442C876.692 607.692 877.524 607.092 878.664 606.642C879.804 606.192 881.258 605.967 883.029 605.967C884.438 605.967 885.892 606.17 887.393 606.575C888.892 606.978 890.317 607.632 891.666 608.531L893.151 604.932C891.831 604.033 890.272 603.343 888.473 602.862C886.673 602.383 884.857 602.142 883.029 602.142C880.269 602.142 877.996 602.556 876.212 603.379Z" fill="url(#paint27_linear_79_7)"/>
<path d="M914.026 602.503V606.417H924.824V633.996H929.278V606.417H940.077V602.503H914.026Z" fill="url(#paint28_linear_79_7)"/>
<path d="M976.879 594.09L970.758 599.938H974.809L982.366 594.09H976.879ZM962.976 602.503V633.996H985.831V630.082H967.475V619.914H983.267V616.09H967.475V606.417H985.201V602.503H962.976Z" fill="url(#paint29_linear_79_7)"/>
<path d="M1006.57 602.503V606.417H1017.37V633.996H1021.82V606.417H1032.62V602.503H1006.57Z" fill="url(#paint30_linear_79_7)"/>
<path d="M1055.52 633.996H1060.02V602.503H1055.52V633.996Z" fill="url(#paint31_linear_79_7)"/>
<path d="M1094.96 603.335C1092.93 604.13 1091.17 605.254 1089.67 606.709C1088.17 608.164 1087 609.866 1086.16 611.817C1085.32 613.766 1084.9 615.911 1084.9 618.249C1084.9 620.589 1085.32 622.733 1086.16 624.683C1087 626.634 1088.16 628.335 1089.65 629.79C1091.13 631.245 1092.89 632.369 1094.91 633.164C1096.93 633.959 1099.15 634.357 1101.55 634.357C1104 634.357 1106.26 633.936 1108.32 633.097C1110.37 632.258 1112.12 631.027 1113.56 629.407L1110.63 626.573C1109.43 627.862 1108.09 628.815 1106.58 629.43C1105.08 630.045 1103.48 630.352 1101.77 630.352C1100 630.352 1098.36 630.052 1096.84 629.452C1095.33 628.853 1094.02 628.013 1092.91 626.933C1091.8 625.853 1090.94 624.571 1090.32 623.086C1089.71 621.602 1089.4 619.989 1089.4 618.249C1089.4 616.51 1089.71 614.898 1090.32 613.413C1090.94 611.928 1091.8 610.646 1092.91 609.566C1094.02 608.486 1095.33 607.647 1096.84 607.047C1098.36 606.447 1100 606.148 1101.77 606.148C1103.48 606.148 1105.08 606.455 1106.58 607.069C1108.09 607.685 1109.43 608.621 1110.63 609.881L1113.56 607.047C1112.12 605.427 1110.37 604.205 1108.32 603.379C1106.26 602.556 1104.02 602.142 1101.59 602.142C1099.19 602.142 1096.98 602.54 1094.96 603.335Z" fill="url(#paint32_linear_79_7)"/>
<path d="M1146.72 602.503L1132.45 633.996H1137.09L1140.55 626.123H1157.29L1160.75 633.996H1165.48L1151.17 602.503H1146.72ZM1148.92 607.069L1155.71 622.523H1142.13L1148.92 607.069Z" fill="url(#paint33_linear_79_7)"/>
<path d="M764.69 81.2652C806.204 93.8923 808.906 113.241 808.906 113.846L808.964 81.2652H764.69ZM661.182 81.282C661.182 81.282 674.529 87.6494 674.529 120.086V295.238C674.529 324.329 661.182 326.453 661.182 326.453H721.412C705.632 326.453 698.348 309.782 698.348 294.632V111.293C698.348 94.0156 708.055 81.282 720.498 81.282H661.182Z" fill="url(#paint34_linear_79_7)"/>
<path d="M747.777 215.179C733.331 225.106 708.083 226.583 708.083 226.583H766.89L767.11 189.41C767.11 189.698 765.65 202.898 747.777 215.179Z" fill="url(#paint35_linear_79_7)"/>
<path d="M605.667 37.0178V189.219C605.667 220.143 592.263 226.583 592.263 226.583H651.708C651.708 226.583 628.259 224.39 628.259 196.506V30.0458C628.259 4.58568 638.55 0.0118882 638.55 0.0118882C599.683 0.0118882 598.88 -9.68354e-05 598.868 -9.68354e-05C598.868 -9.68354e-05 605.667 6.40084 605.667 37.0178Z" fill="url(#paint36_linear_79_7)"/>
<defs>
<linearGradient id="paint0_linear_79_7" x1="-0.000550773" y1="473.083" x2="1635.29" y2="473.083" gradientUnits="userSpaceOnUse">
<stop stop-color="#B79E82"/>
<stop offset="0.318376" stop-color="#B79E82"/>
<stop offset="1" stop-color="#ECD5B1"/>
</linearGradient>
<linearGradient id="paint1_linear_79_7" x1="-0.000557654" y1="473.083" x2="1635.29" y2="473.083" gradientUnits="userSpaceOnUse">
<stop stop-color="#B79E82"/>
<stop offset="0.318376" stop-color="#B79E82"/>
<stop offset="1" stop-color="#ECD5B1"/>
</linearGradient>
<linearGradient id="paint2_linear_79_7" x1="-0.000477861" y1="473.083" x2="1635.29" y2="473.083" gradientUnits="userSpaceOnUse">
<stop stop-color="#B79E82"/>
<stop offset="0.318376" stop-color="#B79E82"/>
<stop offset="1" stop-color="#ECD5B1"/>
</linearGradient>
<linearGradient id="paint3_linear_79_7" x1="-0.000635141" y1="473.083" x2="1635.29" y2="473.083" gradientUnits="userSpaceOnUse">
<stop stop-color="#B79E82"/>
<stop offset="0.318376" stop-color="#B79E82"/>
<stop offset="1" stop-color="#ECD5B1"/>
</linearGradient>
<linearGradient id="paint4_linear_79_7" x1="-0.000913039" y1="473.083" x2="1635.29" y2="473.083" gradientUnits="userSpaceOnUse">
<stop stop-color="#B79E82"/>
<stop offset="0.318376" stop-color="#B79E82"/>
<stop offset="1" stop-color="#ECD5B1"/>
</linearGradient>
<linearGradient id="paint5_linear_79_7" x1="-0.000847055" y1="473.083" x2="1635.29" y2="473.083" gradientUnits="userSpaceOnUse">
<stop stop-color="#B79E82"/>
<stop offset="0.318376" stop-color="#B79E82"/>
<stop offset="1" stop-color="#ECD5B1"/>
</linearGradient>
<linearGradient id="paint6_linear_79_7" x1="-0.00072587" y1="473.083" x2="1635.29" y2="473.083" gradientUnits="userSpaceOnUse">
<stop stop-color="#B79E82"/>
<stop offset="0.318376" stop-color="#B79E82"/>
<stop offset="1" stop-color="#ECD5B1"/>
</linearGradient>
<linearGradient id="paint7_linear_79_7" x1="-0.00100381" y1="473.083" x2="1635.29" y2="473.083" gradientUnits="userSpaceOnUse">
<stop stop-color="#B79E82"/>
<stop offset="0.318376" stop-color="#B79E82"/>
<stop offset="1" stop-color="#ECD5B1"/>
</linearGradient>
<linearGradient id="paint8_linear_79_7" x1="-0.00030409" y1="473.083" x2="1635.29" y2="473.083" gradientUnits="userSpaceOnUse">
<stop stop-color="#B79E82"/>
<stop offset="0.318376" stop-color="#B79E82"/>
<stop offset="1" stop-color="#ECD5B1"/>
</linearGradient>
<linearGradient id="paint9_linear_79_7" x1="-0.000357628" y1="473.083" x2="1635.29" y2="473.083" gradientUnits="userSpaceOnUse">
<stop stop-color="#B79E82"/>
<stop offset="0.318376" stop-color="#B79E82"/>
<stop offset="1" stop-color="#ECD5B1"/>
</linearGradient>
<linearGradient id="paint10_linear_79_7" x1="-0.000950922" y1="473.083" x2="1635.29" y2="473.083" gradientUnits="userSpaceOnUse">
<stop stop-color="#B79E82"/>
<stop offset="0.318376" stop-color="#B79E82"/>
<stop offset="1" stop-color="#ECD5B1"/>
</linearGradient>
<linearGradient id="paint11_linear_79_7" x1="0.000875491" y1="473.083" x2="1635.29" y2="473.083" gradientUnits="userSpaceOnUse">
<stop stop-color="#B79E82"/>
<stop offset="0.318376" stop-color="#B79E82"/>
<stop offset="1" stop-color="#ECD5B1"/>
</linearGradient>
<linearGradient id="paint12_linear_79_7" x1="-0.000530047" y1="473.083" x2="1635.29" y2="473.083" gradientUnits="userSpaceOnUse">
<stop stop-color="#B79E82"/>
<stop offset="0.318376" stop-color="#B79E82"/>
<stop offset="1" stop-color="#ECD5B1"/>
</linearGradient>
<linearGradient id="paint13_linear_79_7" x1="0.0134674" y1="473.083" x2="1635.29" y2="473.083" gradientUnits="userSpaceOnUse">
<stop stop-color="#B79E82"/>
<stop offset="0.318376" stop-color="#B79E82"/>
<stop offset="1" stop-color="#ECD5B1"/>
</linearGradient>
<linearGradient id="paint14_linear_79_7" x1="-0.00111892" y1="473.083" x2="1635.29" y2="473.083" gradientUnits="userSpaceOnUse">
<stop stop-color="#B79E82"/>
<stop offset="0.318376" stop-color="#B79E82"/>
<stop offset="1" stop-color="#ECD5B1"/>
</linearGradient>
<linearGradient id="paint15_linear_79_7" x1="235.751" y1="614.223" x2="1448.07" y2="614.223" gradientUnits="userSpaceOnUse">
<stop stop-color="#B79E82"/>
<stop offset="0.318376" stop-color="#B79E82"/>
<stop offset="1" stop-color="#ECD5B1"/>
</linearGradient>
<linearGradient id="paint16_linear_79_7" x1="235.75" y1="614.223" x2="1448.07" y2="614.223" gradientUnits="userSpaceOnUse">
<stop stop-color="#B79E82"/>
<stop offset="0.318376" stop-color="#B79E82"/>
<stop offset="1" stop-color="#ECD5B1"/>
</linearGradient>
<linearGradient id="paint17_linear_79_7" x1="235.751" y1="614.223" x2="1448.07" y2="614.223" gradientUnits="userSpaceOnUse">
<stop stop-color="#B79E82"/>
<stop offset="0.318376" stop-color="#B79E82"/>
<stop offset="1" stop-color="#ECD5B1"/>
</linearGradient>
<linearGradient id="paint18_linear_79_7" x1="235.751" y1="614.223" x2="1448.07" y2="614.223" gradientUnits="userSpaceOnUse">
<stop stop-color="#B79E82"/>
<stop offset="0.318376" stop-color="#B79E82"/>
<stop offset="1" stop-color="#ECD5B1"/>
</linearGradient>
<linearGradient id="paint19_linear_79_7" x1="235.75" y1="614.223" x2="1448.07" y2="614.223" gradientUnits="userSpaceOnUse">
<stop stop-color="#B79E82"/>
<stop offset="0.318376" stop-color="#B79E82"/>
<stop offset="1" stop-color="#ECD5B1"/>
</linearGradient>
<linearGradient id="paint20_linear_79_7" x1="235.75" y1="614.223" x2="1448.07" y2="614.223" gradientUnits="userSpaceOnUse">
<stop stop-color="#B79E82"/>
<stop offset="0.318376" stop-color="#B79E82"/>
<stop offset="1" stop-color="#ECD5B1"/>
</linearGradient>
<linearGradient id="paint21_linear_79_7" x1="235.751" y1="614.223" x2="1448.07" y2="614.223" gradientUnits="userSpaceOnUse">
<stop stop-color="#B79E82"/>
<stop offset="0.318376" stop-color="#B79E82"/>
<stop offset="1" stop-color="#ECD5B1"/>
</linearGradient>
<linearGradient id="paint22_linear_79_7" x1="235.751" y1="614.223" x2="1448.07" y2="614.223" gradientUnits="userSpaceOnUse">
<stop stop-color="#B79E82"/>
<stop offset="0.318376" stop-color="#B79E82"/>
<stop offset="1" stop-color="#ECD5B1"/>
</linearGradient>
<linearGradient id="paint23_linear_79_7" x1="235.75" y1="614.223" x2="1448.07" y2="614.223" gradientUnits="userSpaceOnUse">
<stop stop-color="#B79E82"/>
<stop offset="0.318376" stop-color="#B79E82"/>
<stop offset="1" stop-color="#ECD5B1"/>
</linearGradient>
<linearGradient id="paint24_linear_79_7" x1="235.751" y1="614.223" x2="1448.07" y2="614.223" gradientUnits="userSpaceOnUse">
<stop stop-color="#B79E82"/>
<stop offset="0.318376" stop-color="#B79E82"/>
<stop offset="1" stop-color="#ECD5B1"/>
</linearGradient>
<linearGradient id="paint25_linear_79_7" x1="235.75" y1="614.223" x2="1448.07" y2="614.223" gradientUnits="userSpaceOnUse">
<stop stop-color="#B79E82"/>
<stop offset="0.318376" stop-color="#B79E82"/>
<stop offset="1" stop-color="#ECD5B1"/>
</linearGradient>
<linearGradient id="paint26_linear_79_7" x1="235.75" y1="614.223" x2="1448.07" y2="614.223" gradientUnits="userSpaceOnUse">
<stop stop-color="#B79E82"/>
<stop offset="0.318376" stop-color="#B79E82"/>
<stop offset="1" stop-color="#ECD5B1"/>
</linearGradient>
<linearGradient id="paint27_linear_79_7" x1="235.751" y1="614.223" x2="1448.07" y2="614.223" gradientUnits="userSpaceOnUse">
<stop stop-color="#B79E82"/>
<stop offset="0.318376" stop-color="#B79E82"/>
<stop offset="1" stop-color="#ECD5B1"/>
</linearGradient>
<linearGradient id="paint28_linear_79_7" x1="235.75" y1="614.223" x2="1448.07" y2="614.223" gradientUnits="userSpaceOnUse">
<stop stop-color="#B79E82"/>
<stop offset="0.318376" stop-color="#B79E82"/>
<stop offset="1" stop-color="#ECD5B1"/>
</linearGradient>
<linearGradient id="paint29_linear_79_7" x1="235.751" y1="614.223" x2="1448.07" y2="614.223" gradientUnits="userSpaceOnUse">
<stop stop-color="#B79E82"/>
<stop offset="0.318376" stop-color="#B79E82"/>
<stop offset="1" stop-color="#ECD5B1"/>
</linearGradient>
<linearGradient id="paint30_linear_79_7" x1="235.753" y1="614.223" x2="1448.07" y2="614.223" gradientUnits="userSpaceOnUse">
<stop stop-color="#B79E82"/>
<stop offset="0.318376" stop-color="#B79E82"/>
<stop offset="1" stop-color="#ECD5B1"/>
</linearGradient>
<linearGradient id="paint31_linear_79_7" x1="235.76" y1="614.223" x2="1448.06" y2="614.223" gradientUnits="userSpaceOnUse">
<stop stop-color="#B79E82"/>
<stop offset="0.318376" stop-color="#B79E82"/>
<stop offset="1" stop-color="#ECD5B1"/>
</linearGradient>
<linearGradient id="paint32_linear_79_7" x1="235.754" y1="614.223" x2="1448.07" y2="614.223" gradientUnits="userSpaceOnUse">
<stop stop-color="#B79E82"/>
<stop offset="0.318376" stop-color="#B79E82"/>
<stop offset="1" stop-color="#ECD5B1"/>
</linearGradient>
<linearGradient id="paint33_linear_79_7" x1="235.749" y1="614.223" x2="1448.07" y2="614.223" gradientUnits="userSpaceOnUse">
<stop stop-color="#B79E82"/>
<stop offset="0.318376" stop-color="#B79E82"/>
<stop offset="1" stop-color="#ECD5B1"/>
</linearGradient>
<linearGradient id="paint34_linear_79_7" x1="592.264" y1="163.226" x2="808.963" y2="163.226" gradientUnits="userSpaceOnUse">
<stop stop-color="#B79E82"/>
<stop offset="1" stop-color="#ECD5B1"/>
</linearGradient>
<linearGradient id="paint35_linear_79_7" x1="592.264" y1="163.226" x2="808.963" y2="163.226" gradientUnits="userSpaceOnUse">
<stop stop-color="#B79E82"/>
<stop offset="1" stop-color="#ECD5B1"/>
</linearGradient>
<linearGradient id="paint36_linear_79_7" x1="592.264" y1="163.226" x2="808.963" y2="163.226" gradientUnits="userSpaceOnUse">
<stop stop-color="#B79E82"/>
<stop offset="1" stop-color="#ECD5B1"/>
</linearGradient>
</defs>
</svg>
